<?xml version="1.0" standalone="no"?>
<!DOCTYPE svg PUBLIC "-//W3C//DTD SVG 20010904//EN"
 "http://www.w3.org/TR/2001/REC-SVG-20010904/DTD/svg10.dtd">
<svg version="1.0" xmlns="http://www.w3.org/2000/svg"
 width="2261.000000pt" height="837.000000pt" viewBox="0 0 2261.000000 837.000000"
 preserveAspectRatio="xMidYMid meet">

<g transform="translate(0.000000,837.000000) scale(0.100000,-0.100000)"
fill="#000000" stroke="none">
<path d="M10000 8015 c-134 -28 -206 -65 -242 -123 -19 -31 -24 -55 -28 -147
l-5 -110 -370 -37 c-203 -20 -393 -39 -422 -42 l-51 -6 -19 38 c-33 68 -175
131 -383 169 -127 23 -480 23 -625 0 -133 -21 -230 -52 -265 -85 -27 -26 -30
-35 -50 -192 -11 -91 -23 -177 -26 -191 l-5 -25 -532 -53 c-293 -29 -550 -57
-572 -63 -83 -21 -89 -33 -163 -332 -32 -127 -38 -165 -30 -188 13 -38 44 -58
89 -58 64 0 75 18 128 213 26 97 51 180 55 184 9 10 84 18 559 58 235 21 431
35 434 31 3 -3 -8 -106 -24 -228 -34 -253 -32 -271 29 -301 33 -16 40 -17 71
-3 20 8 40 23 46 35 6 11 38 222 71 468 33 246 63 460 66 475 4 20 15 31 47
42 156 57 563 60 776 5 105 -27 131 -45 147 -100 18 -61 43 -81 107 -86 28 -3
238 14 466 36 228 23 422 39 432 36 27 -9 31 -62 28 -355 -2 -151 0 -285 5
-298 9 -26 54 -52 91 -52 16 0 38 12 56 29 l29 29 0 501 0 500 24 28 24 28
234 -2 c346 -4 561 -28 648 -73 19 -10 55 -37 80 -61 25 -23 72 -55 106 -71
71 -33 101 -36 1084 -87 1124 -60 1271 -65 1394 -51 61 7 130 15 153 17 34 4
44 1 49 -12 4 -9 -5 -172 -20 -363 -15 -191 -26 -360 -26 -375 0 -42 49 -87
95 -87 40 0 81 32 89 72 3 12 19 203 35 422 24 316 34 403 46 415 13 14 33 11
187 -28 95 -24 188 -48 206 -53 l32 -9 0 -72 c0 -84 11 -106 67 -130 21 -9
274 -75 563 -146 289 -72 550 -139 580 -148 l55 -18 88 -200 c48 -110 97 -208
108 -217 32 -27 94 -23 124 7 41 40 34 75 -65 297 -50 112 -99 217 -110 235
-17 28 -33 37 -146 72 -133 43 -516 140 -842 215 -106 24 -196 46 -199 50 -3
3 -9 44 -13 90 -4 47 -12 92 -19 100 -8 9 -43 25 -80 36 -92 27 -378 95 -484
115 l-88 16 -177 -35 c-97 -19 -220 -41 -272 -48 -147 -20 -663 -15 -1085 10
-198 12 -540 31 -760 42 -285 15 -414 25 -449 36 -27 9 -94 42 -149 74 -188
111 -324 140 -697 146 -184 2 -261 0 -310 -11z"/>
<path d="M16420 6462 c0 -29 2 -30 55 -34 34 -3 66 -13 83 -25 59 -44 57 -10
57 -828 0 -717 -1 -751 -19 -781 -23 -38 -64 -64 -103 -64 -52 0 -73 -11 -73
-36 l0 -24 368 2 367 3 3 23 c2 12 0 22 -5 22 -41 0 -130 23 -146 37 -43 39
-47 67 -47 363 l0 280 120 0 120 0 64 -86 c35 -48 110 -163 166 -256 155 -256
231 -326 410 -378 61 -18 110 -23 263 -27 l187 -5 0 44 0 45 -110 11 c-61 6
-119 16 -129 21 -26 14 -217 216 -287 303 -87 108 -334 444 -334 454 0 5 16
20 35 33 73 50 185 180 223 259 32 67 37 88 40 169 9 198 -82 370 -233 439
-107 49 -168 55 -637 61 l-438 5 0 -30z m771 -122 c134 -38 211 -206 196 -430
-11 -164 -60 -260 -154 -306 -47 -24 -72 -28 -164 -32 l-109 -5 0 398 0 398
98 -6 c53 -4 113 -12 133 -17z"/>
<path d="M4480 6447 c0 -23 5 -24 96 -34 124 -13 141 -28 155 -132 6 -44 9
-338 7 -759 -3 -642 -4 -689 -21 -720 -21 -39 -68 -62 -125 -62 -48 0 -71 -22
-51 -46 12 -14 56 -15 429 -11 384 4 421 6 499 26 262 67 410 234 411 462 0
112 -47 234 -123 316 -79 86 -160 128 -270 141 l-58 7 65 47 c154 111 248 318
216 475 -33 161 -162 277 -335 303 -39 5 -256 10 -482 10 l-413 0 0 -23z m819
-162 c58 -32 103 -89 121 -155 14 -50 11 -188 -4 -233 -29 -79 -89 -140 -166
-166 -19 -6 -68 -14 -107 -18 l-73 -6 0 308 0 307 88 -4 c73 -3 96 -9 141 -33z
m-54 -740 c125 -33 204 -103 264 -237 71 -156 68 -327 -8 -418 -111 -134 -392
-141 -419 -10 -4 19 -6 180 -4 358 l4 322 52 0 c28 0 79 -7 111 -15z"/>
<path d="M6384 6406 c-72 -72 -21 -182 83 -179 55 2 98 49 98 109 0 39 -5 50
-33 75 -47 43 -102 41 -148 -5z"/>
<path d="M6775 6428 c-36 -19 -55 -52 -55 -94 0 -52 28 -90 77 -103 106 -30
182 102 104 180 -32 31 -87 39 -126 17z"/>
<path d="M9194 6406 c-72 -72 -21 -182 83 -179 55 2 98 49 98 109 0 39 -5 50
-33 75 -47 43 -102 41 -148 -5z"/>
<path d="M9585 6428 c-36 -19 -55 -52 -55 -94 0 -52 28 -90 77 -103 106 -30
182 102 104 180 -32 31 -87 39 -126 17z"/>
<path d="M15977 6420 c-15 -12 -31 -37 -36 -58 -22 -78 53 -153 131 -131 67
18 97 87 66 154 -24 54 -113 73 -161 35z"/>
<path d="M5900 6100 c0 -28 3 -30 35 -30 20 0 51 -6 70 -14 65 -28 65 -24 65
-533 0 -500 5 -547 57 -651 69 -137 229 -216 458 -229 183 -9 327 39 441 148
130 125 148 210 164 779 10 349 17 418 49 460 17 22 25 25 76 22 64 -3 98 -17
137 -59 15 -15 115 -173 222 -350 l195 -322 3 -256 c3 -291 5 -285 -78 -285
-64 0 -74 -7 -74 -51 l0 -39 320 0 320 0 0 39 0 39 -80 4 c-67 3 -83 7 -102
26 -22 22 -23 29 -26 250 l-4 228 186 333 c257 460 248 447 358 458 77 7 129
-8 158 -44 19 -25 20 -40 20 -483 0 -499 5 -562 55 -660 36 -72 98 -135 159
-164 138 -65 338 -92 475 -62 109 23 192 66 267 137 75 72 107 132 129 242 19
95 35 354 35 582 1 279 24 425 71 440 14 5 19 16 19 41 l0 34 -235 0 -235 0 0
-40 0 -40 69 0 c53 0 74 -4 92 -19 l24 -19 0 -454 c0 -439 -1 -455 -22 -523
-27 -85 -75 -145 -147 -183 -46 -24 -61 -27 -157 -27 -97 0 -110 2 -164 30
-66 33 -118 93 -135 153 -23 82 -32 304 -28 652 3 195 9 363 13 373 11 26 43
40 110 46 51 5 60 9 60 26 0 20 -8 20 -537 23 l-538 2 0 -30 c0 -23 5 -31 26
-36 14 -4 29 -17 34 -29 19 -50 -18 -138 -173 -408 l-85 -149 -35 64 c-19 34
-70 126 -113 203 -135 243 -138 249 -131 276 4 14 18 31 32 37 21 10 26 18 23
40 l-3 27 -507 3 -508 2 0 -40 0 -40 69 0 c53 0 74 -4 92 -19 l24 -19 3 -408
c4 -534 -6 -604 -102 -700 -70 -69 -126 -88 -250 -82 -99 5 -146 22 -209 78
-85 74 -101 204 -95 746 3 260 7 375 16 390 15 28 33 35 107 43 51 5 60 9 60
26 0 20 -8 20 -312 23 l-313 2 0 -30z"/>
<path d="M10242 6108 c3 -21 10 -24 68 -29 75 -6 114 -28 129 -71 7 -21 11
-223 11 -610 0 -642 1 -636 -62 -662 -18 -8 -59 -17 -90 -21 -48 -6 -58 -11
-58 -26 0 -18 14 -19 350 -19 334 0 350 1 350 19 0 15 -11 19 -62 25 -71 7
-118 31 -136 68 -9 20 -12 95 -10 299 l3 272 74 -99 c265 -352 451 -522 638
-580 75 -24 95 -26 191 -21 62 2 126 12 151 21 26 9 47 12 50 7 3 -5 65 -12
138 -16 l132 -8 -54 -65 c-30 -37 -55 -70 -55 -74 0 -4 12 -8 28 -8 64 -1 152
-65 152 -112 0 -60 -55 -118 -114 -118 -40 0 -56 -11 -56 -36 0 -22 4 -24 53
-24 67 0 163 17 199 36 34 18 75 77 84 121 16 83 -32 160 -117 188 l-49 17 27
37 c25 35 33 39 99 50 88 15 182 60 223 107 124 141 137 431 25 581 -49 66
-90 102 -224 193 -171 116 -240 198 -240 285 0 144 217 228 342 132 50 -39 80
-93 86 -158 4 -48 5 -49 37 -49 l32 0 5 113 c5 120 -2 211 -19 228 -30 30
-347 40 -447 14 -76 -20 -138 -64 -191 -136 -80 -109 -100 -232 -58 -351 40
-110 110 -189 298 -340 66 -52 139 -115 162 -139 97 -102 97 -204 0 -304 -161
-165 -384 -68 -413 179 l-7 57 -36 -3 -36 -3 -3 -184 -2 -184 -43 6 c-167 23
-427 240 -745 620 l-132 158 157 152 c87 84 212 205 279 269 128 123 120 118
234 130 22 3 25 8 28 46 l3 42 -243 -2 -243 -3 -3 -31 c-2 -19 3 -36 12 -44
45 -36 -12 -121 -220 -327 -96 -95 -179 -173 -184 -173 -6 0 -10 80 -10 215 0
289 5 300 139 313 57 6 66 10 66 27 0 20 -8 20 -348 23 l-348 2 3 -22z"/>
<path d="M12762 6108 c2 -17 10 -24 33 -26 59 -5 76 -13 95 -45 19 -31 20 -53
20 -630 0 -704 4 -675 -100 -687 -37 -4 -46 -9 -48 -27 l-3 -23 455 0 c250 0
457 3 459 8 3 4 6 81 8 172 l4 165 -27 3 c-27 3 -28 1 -28 -40 0 -24 -9 -62
-20 -86 -28 -62 -77 -81 -229 -89 -142 -7 -166 -2 -191 40 -18 30 -20 51 -20
291 l0 258 133 -4 c141 -4 180 -16 211 -60 9 -12 16 -37 16 -55 0 -32 1 -33
43 -33 l44 0 6 122 c4 66 7 141 7 165 l0 43 -45 0 c-25 0 -45 -5 -45 -11 0
-32 -151 -55 -285 -44 l-85 7 0 259 0 259 108 0 c120 0 176 -12 211 -43 28
-26 60 -92 61 -124 0 -27 31 -45 68 -41 l27 3 0 145 0 145 -443 3 -443 2 3
-22z"/>
<path d="M13904 6115 c-10 -25 6 -35 58 -35 67 0 117 -25 134 -66 21 -50 20
-1179 0 -1229 -18 -42 -55 -62 -134 -71 -51 -5 -62 -10 -62 -25 0 -18 15 -19
350 -19 334 0 350 1 350 19 0 15 -10 19 -60 24 -33 4 -74 14 -91 23 -55 28
-59 52 -59 384 l0 300 351 0 351 0 -4 -307 c-3 -228 -7 -315 -17 -334 -18 -37
-61 -58 -130 -65 -50 -6 -61 -10 -61 -25 0 -18 15 -19 345 -19 338 0 345 0
345 20 0 16 -7 20 -32 20 -62 1 -112 18 -140 50 l-28 30 0 610 0 609 23 26
c23 27 76 44 140 45 33 0 37 3 37 25 l0 25 -345 0 -345 0 0 -25 c0 -24 3 -25
55 -25 60 0 98 -15 130 -50 19 -20 20 -39 24 -256 l3 -234 -352 0 -351 0 3
233 c3 247 6 262 55 288 12 7 51 15 85 18 56 5 63 9 66 29 l3 22 -346 0 c-293
0 -346 -2 -351 -15z"/>
<path d="M15682 6108 c3 -20 10 -24 63 -28 65 -6 89 -16 120 -50 20 -22 20
-37 20 -629 0 -571 -1 -608 -18 -633 -21 -30 -56 -44 -134 -54 -43 -5 -53 -10
-53 -25 0 -18 15 -19 345 -19 330 0 345 1 345 19 0 15 -10 19 -56 25 -31 3
-69 13 -84 21 -63 32 -60 1 -60 660 0 577 1 601 20 632 21 35 67 53 138 53 38
0 42 2 42 25 l0 25 -346 0 -345 0 3 -22z"/>
<path d="M8584 4281 c-56 -25 -101 -83 -115 -148 -26 -114 48 -227 162 -253
171 -38 313 137 240 295 -50 107 -179 155 -287 106z"/>
<path d="M4192 3868 c-21 -46 -339 -780 -707 -1632 -605 -1398 -674 -1554
-715 -1599 -53 -59 -126 -97 -190 -97 -80 0 -90 -7 -90 -56 l0 -44 510 0 510
0 0 50 c0 28 -3 50 -7 51 -5 0 -72 4 -150 8 -162 9 -199 22 -191 69 5 29 1144
2762 1156 2774 5 5 302 -762 410 -1059 3 -10 -79 -13 -392 -13 l-396 0 0 -50
0 -50 416 -2 417 -3 255 -675 c140 -371 256 -677 258 -678 1 -2 77 24 168 58
l165 62 -19 47 c-10 25 -117 294 -238 596 -120 303 -222 560 -226 572 l-7 23
338 2 338 3 0 45 0 45 -360 3 -360 2 -324 815 -325 815 -103 0 -104 0 -37 -82z"/>
<path d="M10219 2313 c-761 -1760 -733 -1701 -834 -1753 -44 -22 -61 -25 -150
-24 -115 1 -265 33 -317 68 -19 12 -38 37 -45 56 -9 26 -12 234 -12 798 l-1
762 465 0 465 0 0 50 0 50 -653 0 -654 0 -6 -172 c-4 -95 -7 -521 -7 -945 l0
-773 870 0 870 0 0 50 c0 60 5 58 -170 63 -141 4 -180 16 -180 55 0 13 260
648 577 1409 424 1014 580 1381 587 1370 6 -9 98 -249 206 -534 l195 -518
-392 -3 -393 -2 0 -50 0 -50 413 0 412 0 255 -676 c140 -371 258 -680 261
-685 5 -8 311 100 327 115 3 4 -104 280 -237 614 -134 334 -245 613 -248 620
-4 9 67 12 336 12 l341 0 0 50 0 50 -361 2 -362 3 -321 807 -321 808 -106 0
-106 0 -704 -1627z"/>
<path d="M12989 3812 l-146 -56 -7 -149 c-3 -83 -6 -776 -6 -1540 l0 -1390
-52 -52 c-59 -58 -107 -75 -216 -75 -31 0 -74 -3 -94 -6 l-38 -7 0 -52 0 -52
452 -6 c248 -4 520 -7 605 -7 l153 0 0 64 0 63 -137 6 c-76 3 -155 11 -177 18
-52 18 -92 57 -105 105 -8 27 -11 410 -11 1274 0 1208 0 1234 19 1215 10 -11
384 -533 831 -1160 447 -627 814 -1142 816 -1144 2 -2 82 24 179 59 l175 63 0
663 0 664 -190 0 -190 0 -2 -394 -3 -395 -810 1111 c-445 611 -830 1139 -855
1173 l-45 63 -146 -56z"/>
<path d="M2584 3752 c-58 -3 -64 -11 -64 -93 0 -97 -42 -100 -295 -19 -377
120 -641 139 -930 65 -255 -65 -504 -203 -744 -415 l-81 -71 0 -455 0 -454
-120 0 -120 0 6 -62 c35 -392 162 -687 393 -919 226 -226 497 -345 866 -380
295 -28 695 37 1069 172 l86 31 0 534 0 534 275 0 275 0 0 45 0 45 -465 0
-465 0 0 -469 0 -469 -72 -22 c-367 -112 -681 -115 -904 -11 -114 53 -305 173
-365 229 -205 190 -320 523 -306 887 23 590 328 1022 812 1152 90 24 118 26
280 27 178 1 181 0 275 -32 147 -51 231 -103 341 -212 84 -84 101 -107 148
-201 37 -75 58 -133 69 -193 l17 -86 36 0 c36 0 36 0 43 53 8 74 8 785 -1 789
-5 2 -31 2 -59 0z"/>
<path d="M5877 3753 c-4 -3 -7 -73 -7 -155 l0 -148 735 0 c404 0 735 -2 735
-5 0 -2 -144 -214 -320 -471 -176 -256 -320 -470 -320 -475 0 -5 101 -9 234
-9 l235 0 24 33 c19 25 630 964 660 1013 4 6 -14 59 -40 118 l-46 106 -942 0
c-518 0 -945 -3 -948 -7z"/>
<path d="M8067 3753 c-6 -6 -10 -92 -4 -94 1 0 58 -4 127 -8 173 -12 231 -39
271 -126 17 -37 19 -75 19 -538 l0 -497 193 2 192 3 5 530 c5 482 7 533 23
562 31 57 64 67 232 73 l150 5 0 45 0 45 -601 3 c-330 1 -604 -1 -607 -5z"/>
<path d="M14850 3125 l0 -635 190 0 190 0 0 635 0 635 -190 0 -190 0 0 -635z"/>
<path d="M21123 3753 l-413 -3 0 -150 0 -149 543 -3 543 -3 75 -37 c121 -60
193 -134 259 -266 78 -157 82 -390 9 -535 -60 -120 -183 -224 -317 -269 -66
-22 -77 -23 -589 -26 l-523 -3 0 -830 c0 -945 7 -873 -86 -916 -45 -21 -74
-25 -184 -30 l-131 -6 3 -46 3 -46 598 -3 597 -2 0 58 0 58 -137 0 c-128 -1
-142 1 -187 24 -91 46 -86 -1 -86 767 l0 672 53 5 c28 3 185 8 347 11 162 3
331 11 375 16 176 23 323 95 445 219 159 161 241 376 242 630 2 326 -142 600
-393 752 -130 78 -335 122 -549 116 -47 -2 -271 -4 -497 -5z"/>
<path d="M15620 3428 l1 -323 43 106 c48 119 121 237 169 273 103 77 175 89
483 80 l234 -7 2 -531 3 -531 185 0 185 0 3 478 2 477 450 0 450 0 0 150 0
150 -1105 0 -1105 0 0 -322z"/>
<path d="M18322 3123 l3 -628 185 0 185 0 3 478 2 477 745 0 745 0 0 150 0
150 -935 0 -935 0 2 -627z"/>
<path d="M6558 2303 c-8 -10 -203 -289 -432 -620 -413 -598 -416 -603 -416
-653 l0 -50 1000 0 c890 0 1001 2 1007 15 3 9 35 177 72 375 l67 360 -52 0
-52 0 -27 -72 c-63 -169 -79 -206 -111 -260 -59 -97 -143 -154 -271 -184 -58
-13 -137 -15 -525 -12 -251 2 -460 6 -463 10 -4 4 138 231 317 505 l324 498
462 3 462 2 0 50 0 50 -673 0 c-629 0 -675 -1 -689 -17z"/>
<path d="M15790 2270 l0 -50 380 0 380 0 2 -617 3 -618 403 -3 402 -2 0 60 0
60 -62 0 c-113 0 -247 19 -288 40 -79 40 -74 7 -80 625 l-5 550 -567 3 -568 2
0 -50z"/>
<path d="M18318 1483 c-3 -807 -3 -829 -23 -862 -40 -68 -61 -75 -218 -81
l-142 -5 0 -55 0 -55 1082 -3 1081 -2 12 32 c6 18 63 183 125 366 l114 332
-62 0 -62 0 -24 -45 c-88 -166 -188 -289 -338 -416 l-81 -70 -528 -2 -528 -2
-13 25 c-10 20 -13 194 -13 803 l0 777 745 0 745 0 0 45 0 45 -935 0 -935 0
-2 -827z"/>
</g>
</svg>
